# xmcd CD database file
#
# Track frame offsets:
#	150
#	23984
#	41213
#	62676
#	72878
#	96327
#	113748
#
# Disc length: 1820 seconds
#
# Revision: 0
# Processed by: cddbd v1.5.2PL0 Copyright (c) Steve Scherf et al.
# Submitted via: CDex 1.51
#
DISCID=5e071a07
DTITLE=Dan Lawson Band - Soldiers Of Fortune
DYEAR=2014
DGENRE=Blues
TTITLE0=Lied To Me
TTITLE1=I'm Funky But Clean
TTITLE2=Miss Me
TTITLE3=Roadkill
TTITLE4=Goodtime
TTITLE5=Gimme No Reason
TTITLE6=Soldiers Of Fotune
EXTD=YEAR: 2014
EXTT0=
EXTT1=
EXTT2=
EXTT3=
EXTT4=
EXTT5=
EXTT6=
PLAYORDER=
